<svg width="24" height="17" viewBox="0 0 49 35" fill="none" xmlns="http://www.w3.org/2000/svg">
                <path fill-rule="evenodd" clip-rule="evenodd"
                  d="M7.35 5H41.65C43.0031 5 44.1 6.11929 44.1 7.5V27.5C44.1 28.8807 43.0031 30 41.65 30H7.35C5.9969 30 4.9 28.8807 4.9 27.5V7.5C4.9 6.11929 5.9969 5 7.35 5ZM0 7.5C0 3.35787 3.29071 0 7.35 0H41.65C45.7093 0 49 3.35786 49 7.5V27.5C49 31.6421 45.7093 35 41.65 35H7.35C3.29071 35 0 31.6421 0 27.5V7.5ZM19.6 10L29.4 17.5L19.6 25V10Z"
                  fill="#FCFCFC" />
              </svg>