<svg width="17" height="17" viewBox="0 0 34 34" fill="none" xmlns="http://www.w3.org/2000/svg">
                <path fill-rule="evenodd" clip-rule="evenodd"
                  d="M17 9.27273C12.7323 9.27273 9.27273 12.7323 9.27273 17C9.27273 21.2677 12.7323 24.7273 17 24.7273C21.2677 24.7273 24.7273 21.2677 24.7273 17C24.7273 12.7323 21.2677 9.27273 17 9.27273ZM12.3636 17C12.3636 19.5606 14.4394 21.6364 17 21.6364C19.5606 21.6364 21.6364 19.5606 21.6364 17C21.6364 14.4394 19.5606 12.3636 17 12.3636C14.4394 12.3636 12.3636 14.4394 12.3636 17Z"
                  fill="#FCFCFC" />
                <path
                  d="M26.2727 6.18182C25.4192 6.18182 24.7273 6.87374 24.7273 7.72727C24.7273 8.5808 25.4192 9.27273 26.2727 9.27273C27.1263 9.27273 27.8182 8.5808 27.8182 7.72727C27.8182 6.87374 27.1263 6.18182 26.2727 6.18182Z"
                  fill="#FCFCFC" />
                <path fill-rule="evenodd" clip-rule="evenodd"
                  d="M6.18182 0C2.76769 0 0 2.76769 0 6.18182V27.8182C0 31.2323 2.76769 34 6.18182 34H27.8182C31.2323 34 34 31.2323 34 27.8182V6.18182C34 2.76769 31.2323 0 27.8182 0H6.18182ZM27.8182 3.09091H6.18182C4.47476 3.09091 3.09091 4.47476 3.09091 6.18182V27.8182C3.09091 29.5252 4.47476 30.9091 6.18182 30.9091H27.8182C29.5252 30.9091 30.9091 29.5252 30.9091 27.8182V6.18182C30.9091 4.47476 29.5252 3.09091 27.8182 3.09091Z"
                  fill="#FCFCFC" />
              </svg>